<svg width="352" height="372" viewBox="0 0 352 372" fill="none" xmlns="http://www.w3.org/2000/svg">
<path fill-rule="evenodd" clip-rule="evenodd" d="M356.002 0.0433335C442.243 -2.22595 493.019 85.1937 563.366 130.386C634.818 176.287 740.167 192.397 770.966 266.621C801.896 341.161 757.861 424.771 714.207 493.904C676.571 553.507 608.468 586.318 545.183 624.182C485.116 660.122 426.751 696.064 356.002 708.226C272.095 722.648 176.188 743.959 106.229 699.634C36.1274 655.22 27.5153 565.946 11.4104 489.902C-2.83082 422.658 -7.36667 353.698 19.4022 289.658C45.3153 227.664 104.135 186.748 157.22 141.073C219.767 87.256 269.722 2.31364 356.002 0.0433335Z" fill="#252525"/>
</svg>
